<?xml version="1.0" encoding="UTF-8" standalone="no"?>
<svg height="100%" style="fill-rule:nonzero;clip-rule:evenodd;stroke-linecap:round;stroke-linejoin:round;" xmlns="http://www.w3.org/2000/svg" xml:space="preserve" width="100%" version="1.1" viewBox="0 0 419.58 297.675">
<defs/>
<g id="Layer 1" >
<g opacity="1">
<g opacity="1">
<path d="M179.813+148.125L179.813+183.036L171.438+183.036L170.452+179.305C169.091+181.135+167.461+182.355+165.561+182.965C163.66+183.575+161.678+183.88+159.613+183.88C157.126+183.88+154.839+183.399+152.751+182.437C150.663+181.475+148.844+180.162+147.296+178.496C145.747+176.83+144.539+174.883+143.671+172.654C142.803+170.425+142.369+168.044+142.369+165.51C142.369+162.976+142.803+160.595+143.671+158.366C144.539+156.137+145.747+154.19+147.296+152.524C148.844+150.858+150.663+149.544+152.751+148.583C154.839+147.621+157.126+147.14+159.613+147.14C161.865+147.14+163.93+147.492+165.807+148.195C167.684+148.899+169.232+150.025+170.452+151.574L171.438+148.125L179.813+148.125ZM170.1+165.651C170.1+163.821+169.854+162.284+169.361+161.041C168.869+159.797+168.212+158.788+167.391+158.014C166.569+157.24+165.607+156.677+164.505+156.325C163.402+155.973+162.217+155.797+160.95+155.797C159.683+155.797+158.499+156.055+157.396+156.571C156.293+157.087+155.32+157.779+154.475+158.647C153.63+159.516+152.973+160.548+152.504+161.744C152.035+162.941+151.8+164.196+151.8+165.51C151.8+166.871+152.035+168.138+152.504+169.311C152.973+170.484+153.63+171.504+154.475+172.372C155.32+173.24+156.293+173.933+157.396+174.449C158.499+174.965+159.683+175.223+160.95+175.223C163.484+175.223+165.631+174.437+167.391+172.865C169.15+171.293+170.053+168.888+170.1+165.651Z" fill-rule="evenodd" fill-opacity="1" fill="#fff" opacity="1"/>
<path d="M196.635+183.036L186.922+183.036L186.922+148.125L196.635+148.125L196.635+183.036ZM191.779+143.339C190.277+143.339+189.01+142.823+187.978+141.79C186.946+140.758+186.429+139.491+186.429+137.99C186.429+136.488+186.946+135.21+187.978+134.154C189.01+133.098+190.277+132.57+191.779+132.57C193.28+132.57+194.547+133.098+195.579+134.154C196.612+135.21+197.128+136.488+197.128+137.99C197.128+139.491+196.612+140.758+195.579+141.79C194.547+142.823+193.28+143.339+191.779+143.339Z" fill-rule="evenodd" fill-opacity="1" fill="#fff" opacity="1"/>
<path d="M213.457+152.982C213.926+152.231+214.466+151.515+215.076+150.835C215.686+150.154+216.413+149.544+217.258+149.005C218.102+148.465+219.064+148.031+220.144+147.703C221.223+147.374+222.443+147.21+223.803+147.21C225.399+147.21+227.252+147.492+229.364+148.055L228.449+156.712C227.933+156.618+227.417+156.501+226.9+156.36C226.478+156.266+226.009+156.184+225.493+156.114C224.977+156.043+224.507+156.008+224.085+156.008C222.583+156.008+221.188+156.219+219.897+156.642C218.607+157.064+217.492+157.65+216.554+158.401C215.615+159.152+214.865+160.055+214.302+161.111C213.739+162.167+213.457+163.305+213.457+164.525L213.457+183.036L203.744+183.036L203.744+148.125L212.542+148.125L213.457+152.982Z" fill-rule="evenodd" fill-opacity="1" fill="#fff" opacity="1"/>
<path d="M255.054+164.736C257.635+166.566+258.925+169.17+258.925+172.548C258.925+174.097+258.562+175.551+257.834+176.912C257.107+178.273+256.11+179.469+254.843+180.502C253.576+181.534+252.098+182.343+250.409+182.93C248.719+183.517+246.913+183.81+244.989+183.81C243.535+183.81+242.115+183.622+240.731+183.247C239.347+182.871+238.068+182.355+236.895+181.698C235.722+181.041+234.701+180.255+233.833+179.34C232.965+178.425+232.32+177.405+231.898+176.279C232.977+175.763+234.173+175.188+235.487+174.554C236.801+173.921+237.951+173.346+238.936+172.83C239.358+173.534+240.015+174.179+240.907+174.765C241.798+175.352+243.018+175.645+244.567+175.645C246.162+175.645+247.335+175.27+248.086+174.519C248.837+173.768+249.212+173.065+249.212+172.408C249.212+171.938+248.954+171.504+248.438+171.105C247.922+170.707+247.335+170.39+246.678+170.155C245.74+169.78+244.966+169.58+244.356+169.557C243.746+169.534+243.042+169.405+242.244+169.17C239.71+168.56+237.775+167.75+236.437+166.742C235.1+165.733+234.127+164.712+233.517+163.68C232.907+162.648+232.566+161.662+232.496+160.724C232.426+159.785+232.39+159.035+232.39+158.472C232.39+156.97+232.719+155.539+233.376+154.178C234.033+152.817+234.936+151.633+236.086+150.624C237.235+149.615+238.572+148.805+240.097+148.195C241.622+147.585+243.253+147.28+244.989+147.28C246.444+147.28+247.828+147.492+249.142+147.914C250.456+148.336+251.652+148.923+252.731+149.673C253.811+150.424+254.737+151.316+255.512+152.348C256.286+153.38+256.861+154.53+257.236+155.797L249.705+158.331C249.423+157.486+248.849+156.806+247.98+156.29C247.112+155.773+246.186+155.515+245.2+155.515C244.215+155.515+243.417+155.844+242.807+156.501C242.197+157.158+241.892+157.815+241.892+158.472C241.892+159.269+242.186+159.891+242.772+160.337C243.359+160.782+244.004+161.099+244.708+161.287C245.224+161.381+245.728+161.463+246.221+161.533C246.714+161.604+247.195+161.686+247.664+161.78C249.306+162.155+250.725+162.577+251.922+163.046C253.119+163.516+254.163+164.079+255.054+164.736Z" fill-rule="evenodd" fill-opacity="1" fill="#fff" opacity="1"/>
<path d="M281.237+155.797C280.064+155.797+278.961+156.067+277.929+156.606C276.897+157.146+275.993+157.873+275.219+158.788C274.445+159.703+273.835+160.771+273.389+161.991C272.943+163.211+272.721+164.525+272.721+165.932C272.721+167.34+272.943+168.619+273.389+169.768C273.835+170.918+274.445+171.903+275.219+172.724C275.993+173.545+276.897+174.191+277.929+174.66C278.961+175.129+280.064+175.364+281.237+175.364C282.692+175.364+284.111+175.024+285.495+174.343C286.879+173.663+288.064+172.713+289.05+171.493L295.032+177.405C293.39+179.376+291.372+180.948+288.979+182.121C286.586+183.294+284.005+183.88+281.237+183.88C278.703+183.88+276.334+183.399+274.128+182.437C271.923+181.475+269.999+180.162+268.357+178.496C266.714+176.83+265.412+174.883+264.45+172.654C263.488+170.425+263.008+168.044+263.008+165.51C263.008+162.976+263.488+160.595+264.45+158.366C265.412+156.137+266.714+154.19+268.357+152.524C269.999+150.858+271.923+149.544+274.128+148.583C276.334+147.621+278.703+147.14+281.237+147.14C284.099+147.14+286.75+147.75+289.19+148.97C291.63+150.19+293.695+151.855+295.384+153.967L288.627+159.175C287.267+157.908+286.035+157.029+284.932+156.536C283.83+156.043+282.598+155.797+281.237+155.797Z" fill-rule="evenodd" fill-opacity="1" fill="#fff" opacity="1"/>
<path d="M317.485+147.14C319.972+147.14+322.318+147.621+324.523+148.583C326.729+149.544+328.653+150.858+330.295+152.524C331.937+154.19+333.239+156.137+334.201+158.366C335.163+160.595+335.644+162.976+335.644+165.51C335.644+168.044+335.163+170.425+334.201+172.654C333.239+174.883+331.937+176.83+330.295+178.496C328.653+180.162+326.729+181.475+324.523+182.437C322.318+183.399+319.972+183.88+317.485+183.88C314.951+183.88+312.582+183.399+310.376+182.437C308.171+181.475+306.247+180.162+304.605+178.496C302.962+176.83+301.66+174.883+300.698+172.654C299.736+170.425+299.255+168.044+299.255+165.51C299.255+162.976+299.736+160.595+300.698+158.366C301.66+156.137+302.962+154.19+304.605+152.524C306.247+150.858+308.171+149.544+310.376+148.583C312.582+147.621+314.951+147.14+317.485+147.14ZM317.485+175.364C318.658+175.364+319.749+175.129+320.758+174.66C321.767+174.191+322.658+173.545+323.432+172.724C324.207+171.903+324.817+170.918+325.262+169.768C325.708+168.619+325.931+167.34+325.931+165.932C325.931+164.525+325.708+163.211+325.262+161.991C324.817+160.771+324.207+159.703+323.432+158.788C322.658+157.873+321.767+157.146+320.758+156.606C319.749+156.067+318.658+155.797+317.485+155.797C316.312+155.797+315.209+156.067+314.177+156.606C313.145+157.146+312.241+157.873+311.467+158.788C310.693+159.703+310.083+160.771+309.637+161.991C309.191+163.211+308.968+164.525+308.968+165.932C308.968+167.34+309.191+168.619+309.637+169.768C310.083+170.918+310.693+171.903+311.467+172.724C312.241+173.545+313.145+174.191+314.177+174.66C315.209+175.129+316.312+175.364+317.485+175.364Z" fill-rule="evenodd" fill-opacity="1" fill="#fff" opacity="1"/>
<path d="M362.812+148.125L372.525+148.125L372.525+183.036L364.22+183.036L362.812+180.361C361.686+181.159+360.408+181.804+358.976+182.297C357.545+182.789+356.009+183.036+354.366+183.036C353.099+183.036+351.656+182.848+350.038+182.473C348.419+182.097+346.906+181.393+345.498+180.361C344.09+179.329+342.905+177.898+341.943+176.068C340.982+174.238+340.501+171.868+340.501+168.959L340.501+148.125L350.284+148.125L350.284+168.607C350.284+169.686+350.46+170.601+350.812+171.352C351.164+172.103+351.633+172.701+352.22+173.147C352.806+173.592+353.475+173.921+354.226+174.132C354.976+174.343+355.75+174.449+356.548+174.449C357.158+174.449+357.827+174.343+358.554+174.132C359.281+173.921+359.962+173.581+360.595+173.111C361.229+172.642+361.757+172.032+362.179+171.281C362.601+170.531+362.812+169.639+362.812+168.607L362.812+148.125Z" fill-rule="evenodd" fill-opacity="1" fill="#fff" opacity="1"/>
<path d="M391.811+170.507C391.811+172.149+392.315+173.416+393.324+174.308C394.333+175.199+395.658+175.645+397.301+175.645C398.615+175.645+399.928+175.387+401.242+174.871L401.242+183.036C400.069+183.411+398.826+183.728+397.512+183.986C396.198+184.244+394.884+184.373+393.57+184.373C392.069+184.373+390.638+184.185+389.277+183.81C387.916+183.434+386.696+182.789+385.617+181.874C384.538+180.959+383.681+179.739+383.048+178.214C382.414+176.689+382.098+174.801+382.098+172.548L382.098+156.782L377.1+156.782L377.1+150.237L382.098+148.125L382.098+140.312L391.811+140.312L391.811+148.125L401.242+148.125L401.242+156.782L391.811+156.782L391.811+170.507Z" fill-rule="evenodd" fill-opacity="1" fill="#fff" opacity="1"/>
</g>
<path d="M42.445+154.883C36.4302+154.863+30.9964+158.47+28.6806+164.022C26.3646+169.572+27.6235+175.972+31.8693+180.232C36.1152+184.493+42.5105+185.773+48.0694+183.476C53.6283+181.179+57.2541+175.758+57.2542+169.743C57.2588+161.554+50.6339+154.907+42.445+154.883ZM42.445+180.887C37.9327+180.908+33.8535+178.205+32.1127+174.043C30.3717+169.88+31.3128+165.079+34.4962+161.881C37.6795+158.683+42.4771+157.719+46.6478+159.442C50.8185+161.164+53.5393+165.231+53.5393+169.743C53.5462+175.881+48.5832+180.867+42.445+180.887ZM107.406+143.738C112.494+143.738+116.915+146.151+118.185+149.319C112.168+146.687+105.295+146.846+99.4066+149.756C98.7614+149.113+98.0957+148.502+97.4095+147.921C99.3011+145.364+103.14+143.738+107.406+143.738ZM75.8288+136.309C79.8193+136.309+83.23+138.333+84.5409+141.166C78.8327+139.642+72.8249+139.642+67.1164+141.166C68.4275+138.333+71.838+136.309+75.8288+136.309ZM44.2519+143.738C48.5172+143.738+52.357+145.364+54.2485+147.92C53.5623+148.502+52.8963+149.113+52.2507+149.754C46.3623+146.846+39.49+146.687+33.4729+149.319C34.7426+146.151+39.1645+143.738+44.2519+143.738ZM42.3945+188.317C32.136+188.317+23.82+180.002+23.82+169.743C23.82+159.485+32.136+151.168+42.3945+151.168C52.653+151.168+60.9691+159.485+60.9691+169.743C60.9575+179.996+52.6482+188.306+42.3945+188.317ZM73.9712+166.079C70.7773+166.249+67.6248+166.881+64.6123+167.956C64.0886+161.489+60.7742+155.573+55.5339+151.75C60.5594+147.022+67.0841+144.208+73.9712+143.798L73.9712+147.688C70.6896+148.534+68.3961+151.495+68.3961+154.883C68.3961+158.272+70.6896+161.231+73.9712+162.077L73.9712+166.079ZM72.1138+154.883C72.1138+152.832+73.7771+151.168+75.8288+151.168C77.8805+151.168+79.5436+152.832+79.5436+154.883C79.5436+156.935+77.8805+158.598+75.8288+158.598C73.7781+158.596+72.1163+156.933+72.1138+154.883ZM87.0454+167.954C84.0321+166.881+80.8809+166.249+77.6862+166.079L77.6862+162.077C80.9674+161.231+83.2608+158.272+83.2608+154.883C83.2608+151.495+80.9674+148.534+77.6862+147.688L77.6862+143.798C84.5732+144.208+91.0984+147.022+96.1235+151.75C90.8843+155.573+87.5689+161.489+87.0454+167.954ZM109.263+188.317C99.0049+188.317+90.6878+180.002+90.6878+169.743C90.6878+159.485+99.0049+151.168+109.263+151.168C119.522+151.168+127.837+159.485+127.837+169.743C127.826+179.996+119.516+188.306+109.263+188.317ZM109.313+154.883C103.298+154.863+97.8655+158.47+95.5487+164.022C93.2334+169.572+94.4915+175.972+98.738+180.232C102.983+184.493+109.379+185.773+114.938+183.476C120.497+181.179+124.123+175.758+124.123+169.743C124.128+161.554+117.503+154.907+109.313+154.883ZM109.313+180.887C104.801+180.908+100.722+178.205+98.9814+174.043C97.2409+169.88+98.1808+165.079+101.364+161.881C104.548+158.683+109.345+157.719+113.516+159.442C117.687+161.164+120.408+165.231+120.408+169.743C120.415+175.881+115.451+180.867+109.313+180.887Z" fill-rule="evenodd" fill-opacity="1" fill="#fff" opacity="1"/>
</g>
</g>
</svg>
